<svg width="512" height="512" viewBox="0 0 512 512" fill="none" xmlns="http://www.w3.org/2000/svg">
  <!-- Background gradient -->
  <rect width="512" height="512" rx="128" fill="url(#gradient)"/>
  
  <!-- Globe -->
  <circle cx="256" cy="256" r="160" fill="#ffffff" opacity="0.95"/>
  
  <!-- Longitude lines -->
  <ellipse cx="256" cy="256" rx="40" ry="160" fill="none" stroke="#4f46e5" stroke-width="3" opacity="0.3"/>
  <ellipse cx="256" cy="256" rx="80" ry="160" fill="none" stroke="#4f46e5" stroke-width="3" opacity="0.3"/>
  <ellipse cx="256" cy="256" rx="120" ry="160" fill="none" stroke="#4f46e5" stroke-width="3" opacity="0.3"/>
  
  <!-- Latitude lines -->
  <ellipse cx="256" cy="256" rx="160" ry="40" fill="none" stroke="#4f46e5" stroke-width="3" opacity="0.3"/>
  <ellipse cx="256" cy="256" rx="160" ry="80" fill="none" stroke="#4f46e5" stroke-width="3" opacity="0.3"/>
  <ellipse cx="256" cy="256" rx="160" ry="120" fill="none" stroke="#4f46e5" stroke-width="3" opacity="0.3"/>
  
  <!-- Equator -->
  <line x1="96" y1="256" x2="416" y2="256" stroke="#4f46e5" stroke-width="4" opacity="0.5"/>
  
  <!-- Prime meridian -->
  <line x1="256" y1="96" x2="256" y2="416" stroke="#4f46e5" stroke-width="4" opacity="0.5"/>
  
  <!-- Clock center -->
  <circle cx="256" cy="256" r="80" fill="#4f46e5"/>
  
  <!-- Clock face -->
  <circle cx="256" cy="256" r="70" fill="#ffffff"/>
  
  <!-- Hour markers -->
  <circle cx="256" cy="196" r="4" fill="#4f46e5"/>
  <circle cx="316" cy="256" r="4" fill="#4f46e5"/>
  <circle cx="256" cy="316" r="4" fill="#4f46e5"/>
  <circle cx="196" cy="256" r="4" fill="#4f46e5"/>
  
  <!-- Hour hand -->
  <line x1="256" y1="256" x2="256" y2="226" stroke="#1e293b" stroke-width="6" stroke-linecap="round"/>
  
  <!-- Minute hand -->
  <line x1="256" y1="256" x2="286" y2="256" stroke="#475569" stroke-width="4" stroke-linecap="round"/>
  
  <!-- Center dot -->
  <circle cx="256" cy="256" r="6" fill="#ef4444"/>
  
  <!-- Outer globe border -->
  <circle cx="256" cy="256" r="160" fill="none" stroke="#4f46e5" stroke-width="6"/>
  
  <defs>
    <linearGradient id="gradient" x1="0" y1="0" x2="512" y2="512" gradientUnits="userSpaceOnUse">
      <stop offset="0%" stop-color="#6366f1"/>
      <stop offset="100%" stop-color="#4f46e5"/>
    </linearGradient>
  </defs>
</svg>
